<svg xmlns="http://www.w3.org/2000/svg" xml:space="preserve" width="561.299" height="430.526" viewBox="0 0 148.51 113.91"><path d="M44.277 128.472c-1.356-.135-3.811-.512-5.455-.837s-4.255-.996-5.801-1.49c-1.547-.493-3.302-1.146-3.9-1.45l-1.088-.551v-8.972c0-5.307.129-9.6.315-10.509.173-.845.904-2.765 1.624-4.267 1.068-2.224 1.721-3.139 3.53-4.941 1.698-1.694 2.8-2.499 4.702-3.438 1.366-.674 3.39-1.418 4.496-1.652 1.461-.31 4.017-.428 9.336-.432l7.324-.005.004.943c.002.519.197 1.76.432 2.757s.884 2.719 1.44 3.825c.558 1.107 1.607 2.74 2.332 3.63 1.136 1.395 1.248 1.644.803 1.792-.283.095-1.583.69-2.888 1.32-1.306.632-3.262 1.894-4.347 2.805s-2.593 2.427-3.35 3.367-1.89 2.763-2.518 4.05c-.627 1.288-1.356 3.125-1.62 4.082-.29 1.053-.546 3.431-.645 6.02l-.164 4.277-1.049-.038c-.576-.021-2.157-.15-3.513-.285m4.06-40.087c-1.036-.35-2.637-1.139-3.557-1.753s-2.241-1.787-2.937-2.608c-.697-.82-1.592-2.145-1.99-2.942s-.935-2.307-1.195-3.355c-.26-1.047-.473-2.54-.473-3.317s.213-2.27.473-3.317.864-2.683 1.341-3.634c.485-.967 1.657-2.52 2.654-3.516.982-.982 2.434-2.11 3.227-2.508.793-.397 2.16-.958 3.038-1.245 1.03-.338 2.468-.524 4.06-.524 1.58 0 3.04.187 4.061.519.878.285 2.328.903 3.223 1.372.896.47 2.307 1.53 3.137 2.355.83.826 1.88 2.155 2.333 2.954s1.097 2.348 1.432 3.441c.334 1.094.607 2.47.607 3.056 0 .858-.157 1.16-.803 1.542-.442.26-1.519 1.202-2.393 2.092s-2.073 2.415-2.664 3.389c-.59.974-1.334 2.573-1.653 3.554-.32.98-.666 2.271-.771 2.868-.183 1.042-.268 1.11-2.075 1.668-1.335.413-2.658.577-4.537.564-1.925-.013-3.169-.193-4.538-.655" style="fill:#3070a0" transform="translate(-28.033 -44.323)"/><path d="M118.421 71.819c-.417-.548-.76-1.156-.76-1.352s.316-.895.702-1.553c.386-.659.982-2.03 1.325-3.048s.726-2.775.852-3.905.121-2.943-.01-4.03c-.132-1.087-.462-2.683-.735-3.547-.474-1.503-.472-1.595.04-2.16.294-.326 1.23-1.054 2.082-1.619.85-.564 2.279-1.278 3.173-1.586s2.438-.643 3.43-.744c1.02-.105 2.713-.031 3.904.17 1.229.207 2.953.78 4.152 1.38 1.235.618 2.698 1.675 3.678 2.657.895.897 2.052 2.431 2.57 3.409.519.977.94 1.89.937 2.026-.003.138-.668.641-1.478 1.12s-2.364 1.807-3.454 2.952c-1.315 1.382-2.324 2.795-3.002 4.206-.562 1.168-1.19 3.015-1.397 4.104-.359 1.893-.408 1.973-1.103 1.824l-2.903-.63c-1.492-.326-2.84-.42-4.292-.304-1.164.094-3.092.498-4.284.898-1.193.4-2.28.728-2.418.728-.137 0-.59-.448-1.009-.996" style="fill:#003c6c" transform="translate(-28.033 -44.323)"/><path d="M94.619 87.215a33 33 0 0 1-.28-1.986c-.087-.75-.423-2.12-.747-3.046-.325-.925-.986-2.318-1.47-3.097-.483-.778-.797-1.496-.698-1.595s4.988-.18 10.864-.18 10.773.089 10.882.197-.327 1.244-.967 2.524-1.317 3.083-1.503 4.008c-.187.926-.4 1.99-.473 2.366-.106.546-.261.646-.773.499-.351-.101-1.42-.391-2.376-.645-1.27-.337-2.557-.425-4.786-.326-2.509.11-3.448.291-5.299 1.02-2.24.88-2.25.88-2.374.261m3.978-11.317c-.834-.213-2.37-.807-3.415-1.321s-2.667-1.647-3.607-2.517-2.131-2.24-2.648-3.045c-.516-.804-1.255-2.334-1.643-3.4-.44-1.214-.761-2.858-.857-4.402-.107-1.718-.014-3.059.307-4.42.254-1.073.888-2.836 1.409-3.915.624-1.291 1.593-2.608 2.833-3.848 1.037-1.037 2.669-2.298 3.626-2.802.957-.505 2.524-1.144 3.48-1.42 1.14-.33 2.693-.497 4.497-.485 1.932.014 3.325.198 4.662.618 1.048.33 2.692 1.108 3.653 1.729.96.62 2.24 1.622 2.842 2.225.603.602 1.607 1.886 2.231 2.851s1.418 2.675 1.763 3.798c.45 1.46.628 2.788.625 4.653-.003 1.646-.195 3.249-.519 4.336a24.5 24.5 0 0 1-1.333 3.347c-.45.892-1.42 2.29-2.154 3.108-.735.817-2.083 1.981-2.995 2.587-.913.606-2.51 1.414-3.55 1.795-1.384.507-2.666.723-4.79.804-1.828.07-3.462-.032-4.417-.276" style="fill:#490e3c" transform="translate(-28.033 -44.323)"/><path d="M131.499 139.13c-.099-2.178-.398-4.834-.666-5.902s-.842-2.731-1.276-3.695c-.434-.963-1.166-2.343-1.628-3.065s-1.362-1.936-2-2.697c-.639-.76-1.93-1.988-2.87-2.727s-2.806-1.907-4.145-2.597c-1.34-.689-2.627-1.253-2.86-1.253-.232 0-.423-.074-.423-.165 0-.09.585-.881 1.299-1.758s1.76-2.532 2.324-3.679 1.218-2.998 1.452-4.115c.235-1.117.429-2.336.431-2.71l.005-.68 8.05.124c7.423.114 8.195.174 9.934.779a33 33 0 0 1 3.626 1.557c1.1.57 2.649 1.815 4.206 3.381 1.8 1.81 2.727 3.02 3.43 4.476.53 1.098 1.215 2.98 1.522 4.18.492 1.92.559 3.247.559 11v8.815l-1.813.841c-.997.463-2.988 1.18-4.423 1.595-1.436.414-4.075 1.005-5.865 1.312s-4.477.645-5.972.75l-2.718.191zm-6.006-35.762c-.558-.068-1.667-.329-2.465-.58-.798-.252-1.577-.575-1.73-.718-.155-.142-.445-1.063-.646-2.046-.2-.983-.805-2.71-1.344-3.838-.538-1.129-1.53-2.745-2.203-3.592-.674-.847-1.933-2.087-2.798-2.755-1.448-1.118-1.574-1.31-1.575-2.396 0-.649.21-1.889.466-2.756.258-.866.832-2.293 1.277-3.17.446-.878 1.538-2.327 2.428-3.22s2.371-2.023 3.292-2.51c.92-.488 2.382-1.095 3.248-1.35.874-.256 2.627-.462 3.936-.462s3.062.206 3.935.463c.867.254 2.335.865 3.263 1.356.928.49 2.406 1.612 3.285 2.492.88.879 1.943 2.26 2.363 3.067s1 2.187 1.29 3.064c.334 1.009.537 2.516.552 4.096.014 1.553-.163 3.145-.469 4.206-.27.938-.89 2.406-1.378 3.263s-1.58 2.25-2.426 3.098-2.111 1.874-2.81 2.284-1.985.99-2.858 1.29c-.874.301-2.495.612-3.603.691-1.108.08-2.471.09-3.03.023M83.9 72.598c-.941-.386-2.638-.899-3.771-1.139-1.339-.283-2.703-.373-3.895-.255-1.008.1-2.804.49-3.99.866l-2.156.685-.154-.768a69 69 0 0 0-.6-2.507c-.244-.956-.842-2.485-1.328-3.396-.486-.912-1.6-2.45-2.475-3.417-.876-.968-2.171-2.158-2.879-2.645-1.04-.716-1.253-1.005-1.11-1.515.098-.347.59-1.464 1.092-2.484.536-1.087 1.619-2.557 2.615-3.554a14.1 14.1 0 0 1 3.796-2.708 16 16 0 0 1 4.35-1.343c1.713-.255 2.754-.254 4.334.004 1.144.187 2.895.72 3.891 1.183s2.254 1.181 2.796 1.594l.984.751-.737 2.093c-.549 1.556-.773 2.879-.873 5.15-.11 2.513-.025 3.455.484 5.31.34 1.24.96 2.933 1.377 3.76.417.829 1.02 1.878 1.341 2.332l.583.826-.982.94-.983.94z" style="fill:#890504" transform="translate(-28.033 -44.323)"/><path d="M71.08 142.703c-1.291-.126-3.902-.505-5.801-.842-1.9-.338-4.694-.932-6.21-1.32-1.515-.387-3.603-.939-4.64-1.225l-1.886-.522v-9.712c0-9.227.033-9.814.644-11.743.354-1.117 1.137-2.87 1.74-3.895.603-1.026 1.957-2.73 3.008-3.787a16.7 16.7 0 0 1 4.206-3.11c1.262-.654 3.013-1.42 3.89-1.701 1.338-.43 3.006-.533 10.33-.634l8.733-.12.2 1.76c.11.967.436 2.45.727 3.294.29.844.87 2.21 1.289 3.037.419.826 1.36 2.238 2.092 3.136.732.9 1.288 1.666 1.235 1.703s-.683.286-1.401.552-2.33 1.083-3.583 1.817c-1.253.733-3.093 2.148-4.089 3.143-.995.996-2.355 2.613-3.021 3.594s-1.616 2.795-2.11 4.03c-.496 1.236-1.076 3.23-1.29 4.431s-.394 3.587-.4 5.302c-.01 3.05-.025 3.118-.663 3.079-.359-.022-1.709-.142-3-.267m4.088-39.426c-.798-.127-2.182-.51-3.076-.849-.894-.34-2.23-1.017-2.968-1.506-.737-.489-1.943-1.558-2.679-2.376-.735-.819-1.696-2.211-2.135-3.095s-.981-2.26-1.206-3.057-.403-2.56-.397-3.916c.009-1.766.197-3.009.663-4.382.358-1.055 1.044-2.538 1.525-3.296.482-.759 1.515-2.003 2.297-2.764.781-.762 2.047-1.74 2.813-2.174.766-.435 2.24-1.037 3.277-1.338 1.164-.34 2.787-.549 4.248-.549 1.538 0 3.014.201 4.227.576 1.026.317 2.638 1.079 3.584 1.693s2.254 1.701 2.908 2.415c.654.715 1.541 1.9 1.972 2.635.43.735 1.038 2.227 1.35 3.316.31 1.09.566 2.639.566 3.443 0 1.374-.089 1.549-1.47 2.902-.808.791-2.037 2.353-2.732 3.47-.694 1.116-1.534 2.867-1.866 3.89s-.604 2.08-.604 2.346c0 .296-.594.78-1.523 1.24-.837.415-2.045.883-2.683 1.04-.638.156-1.943.348-2.9.426-.958.078-2.393.037-3.191-.09" style="fill:#155920" transform="translate(-28.033 -44.323)"/><path d="M155.66 125.051c0-1.74-.188-4.146-.418-5.345-.229-1.2-.814-3.172-1.299-4.384s-1.43-3.01-2.098-3.994c-.67-.985-2.056-2.618-3.082-3.63-1.026-1.01-2.864-2.422-4.083-3.136s-2.805-1.515-3.523-1.781-1.354-.519-1.413-.563.503-.771 1.249-1.616 1.8-2.452 2.342-3.572c.543-1.119 1.187-2.88 1.43-3.915.244-1.035.446-2.32.448-2.854l.004-.974 7.904.14c5.917.105 8.289.252 9.433.586.84.245 2.341.83 3.335 1.299.994.47 2.526 1.394 3.403 2.056.878.66 2.221 1.952 2.987 2.87.765.917 1.84 2.58 2.388 3.697.549 1.117 1.196 2.809 1.437 3.76.347 1.364.44 3.663.44 10.914v9.185l-1.378.58c-.758.319-2.422.92-3.698 1.334-1.277.415-3.206.957-4.287 1.205-1.081.247-3.422.642-5.202.876-1.78.235-3.93.427-4.778.427h-1.542zm-6.817-36.586a21 21 0 0 1-2.32-.65c-1.132-.4-1.175-.466-1.76-2.702-.33-1.26-.81-2.774-1.067-3.363-.257-.59-.982-1.83-1.61-2.756-.63-.926-1.79-2.285-2.578-3.022s-1.719-1.49-2.068-1.678c-.453-.242-.634-.61-.634-1.283 0-.52.202-1.722.45-2.673.247-.951.802-2.44 1.233-3.31.43-.868 1.565-2.377 2.523-3.352.957-.976 2.376-2.124 3.153-2.553s2.259-1.04 3.294-1.36c1.142-.353 2.699-.58 3.964-.58 1.147 0 2.83.193 3.743.431s2.415.814 3.34 1.28c.924.468 2.415 1.572 3.313 2.455.897.884 1.966 2.178 2.376 2.876.409.699 1.01 2.043 1.335 2.987.325.945.669 2.635.763 3.755.13 1.54.03 2.607-.414 4.36-.323 1.277-1.004 3.036-1.512 3.908-.51.873-1.534 2.217-2.278 2.986-.745.77-2.132 1.86-3.085 2.421-.952.562-2.702 1.27-3.89 1.574-1.186.304-2.822.538-3.634.52-.812-.017-1.999-.139-2.637-.27" style="fill:#0e4d16" transform="translate(-28.033 -44.323)"/><path d="M101.999 158.2c-1.037-.047-3.387-.233-5.222-.416-1.834-.182-5.554-.772-8.266-1.313s-6.171-1.35-7.687-1.798l-2.755-.817.01-9.266c.009-8.014.08-9.522.532-11.153.288-1.037 1.063-2.93 1.724-4.205.828-1.6 1.833-2.954 3.238-4.358 1.405-1.405 2.758-2.41 4.358-3.238 1.276-.66 3.169-1.439 4.206-1.73 1.636-.458 3.07-.529 10.877-.532 6.674-.003 9.403.098 10.587.394.877.22 2.509.82 3.626 1.334s2.84 1.549 3.829 2.299 2.411 2.172 3.16 3.162 1.73 2.582 2.178 3.539c.45.957 1.034 2.523 1.298 3.48.381 1.382.51 3.607.626 10.807l.146 9.067-1.91.866c-1.051.477-3.018 1.187-4.37 1.58-1.353.391-3.87.974-5.594 1.294s-4.309.656-5.745.747-3.59.204-4.786.253c-1.196.048-3.023.05-4.06.004zm-1.16-39.737c-.4-.077-1.378-.345-2.176-.595s-2.125-.833-2.95-1.297c-.824-.463-2.198-1.543-3.054-2.398s-1.921-2.227-2.367-3.047c-.447-.82-1.063-2.368-1.37-3.44-.306-1.071-.556-2.802-.556-3.845s.194-2.644.432-3.557c.237-.912.828-2.444 1.313-3.405s1.636-2.5 2.558-3.422S94.973 91.43 95.74 91c.768-.43 2.243-1.042 3.278-1.362 1.142-.353 2.699-.58 3.964-.58 1.147 0 2.83.194 3.743.431.912.238 2.446.83 3.408 1.316.99.5 2.496 1.64 3.467 2.627.984.999 2.092 2.513 2.594 3.543.482.99 1.091 2.648 1.353 3.685.333 1.319.428 2.538.316 4.06-.087 1.197-.42 2.916-.737 3.821-.318.905-1.024 2.341-1.568 3.191s-1.435 1.993-1.98 2.538c-.546.546-1.688 1.437-2.538 1.98-.85.545-2.287 1.247-3.191 1.561-.905.314-2.69.62-3.966.681-1.276.06-2.647.047-3.046-.03" style="fill:#000" transform="translate(-28.033 -44.323)"/></svg>