<svg xmlns="http://www.w3.org/2000/svg" xml:space="preserve" width="516.643" height="516.643" viewBox="0 0 136.695 136.695"><path d="M51.151 122.057c-4.618-.463-11.283-2.124-13.95-3.477l-1.001-.508v-8.257c0-4.885.118-8.836.29-9.673.159-.778.832-2.546 1.495-3.928 1.633-3.403 4.257-6.074 7.577-7.712 3.427-1.692 4.891-1.913 12.73-1.918l6.742-.005.004.868c.012 2.623 1.71 6.749 3.87 9.4 1.045 1.284 1.148 1.513.74 1.65-.262.086-1.459.633-2.66 1.214-3.999 1.934-7.436 5.374-9.402 9.41-1.541 3.164-1.913 4.82-2.085 9.296l-.15 3.938-.966-.035c-.53-.02-1.986-.138-3.234-.263m3.738-36.898c-4.48-1.512-7.741-5.103-8.91-9.81-.55-2.217-.55-3.89 0-6.107 1.57-6.32 6.83-10.517 13.182-10.517 6.155 0 11.224 3.802 13.056 9.794.796 2.604.75 3.682-.18 4.232-1.212.716-3.596 3.3-4.654 5.045-.993 1.637-1.905 4.051-2.232 5.912-.169.958-.246 1.021-1.91 1.535-2.414.746-6 .71-8.352-.084" style="fill:#3070a0" transform="translate(-36.2 -28.644)"/><path d="M104.28 149.419c-5.625-.252-14.203-1.68-19.49-3.246l-2.535-.752.009-8.53c.01-9.668.108-10.332 2.076-14.136 2.092-4.042 6.176-7.27 10.863-8.583 1.507-.422 2.826-.487 10.012-.49 9.075-.004 9.813.086 13.082 1.59 4.8 2.212 8.187 6.25 9.633 11.488.35 1.272.47 3.32.576 9.947l.135 8.346-1.759.797c-5.31 2.408-14.855 3.915-22.601 3.569m-1.067-36.575c-2.892-.56-5.516-1.937-7.529-3.95-5.24-5.24-5.236-13.822.01-19.067 4.34-4.341 10.467-5.271 16.075-2.44 4.435 2.239 7.487 7.733 7.115 12.808-.408 5.563-3.979 10.23-9.218 12.05-1.485.515-5.135.854-6.453.599" style="fill:#005db7" transform="translate(-36.2 -28.644)"/><path d="M119.397 69.91c-.859-1.125-.862-1.295-.054-2.674 2.154-3.675 2.683-9.044 1.318-13.373-.436-1.384-.434-1.469.037-1.99.84-.928 3.27-2.41 4.837-2.948 6.196-2.132 13.297.62 16.323 6.325.478.9.866 1.739.863 1.865s-.616.59-1.361 1.03c-3.378 1.997-6.487 6.454-7.228 10.367-.33 1.742-.375 1.816-1.015 1.678l-2.672-.58c-2.525-.55-5.174-.366-7.895.548-1.097.368-2.098.67-2.224.67s-.545-.413-.93-.917" style="fill:#003c6c" transform="translate(-36.2 -28.644)"/><path d="M97.488 84.082a31 31 0 0 1-.258-1.828c-.193-1.683-1.052-4.063-2.04-5.654-.444-.716-.734-1.377-.642-1.468.226-.227 19.788-.212 20.015.015.1.1-.3 1.145-.89 2.323-.936 1.87-1.212 2.76-1.818 5.867-.099.503-.24.595-.712.46-3.181-.914-3.912-1.013-6.592-.895-2.31.103-3.174.269-4.878.939-2.062.81-2.071.811-2.185.24m3.661-10.417c-2.215-.565-4.76-1.956-6.463-3.532-8.508-7.877-5.17-21.86 5.99-25.085 2.261-.653 6.14-.596 8.43.123 6.09 1.915 10.24 7.612 10.23 14.043-.01 6.421-3.731 11.772-9.712 13.965-2.154.79-6.342 1.03-8.475.486" style="fill:#490e3c" transform="translate(-36.2 -28.644)"/><path d="M131.434 131.866c-.09-2.004-.367-4.449-.613-5.432-1.108-4.416-3.726-8.519-7.156-11.215-1.616-1.27-5.752-3.543-6.447-3.543-.577 0-.502-.164.806-1.77 2.086-2.561 3.853-6.972 3.873-9.669l.005-.625 7.409.113c8.16.126 8.781.233 12.481 2.15 2.328 1.207 5.888 4.87 7.029 7.233 1.736 3.596 1.915 4.902 1.915 13.971v8.114l-1.669.775c-3.398 1.577-9.71 2.997-14.966 3.366l-2.502.176zm-5.528-32.917c-1.146-.138-3.51-.869-3.862-1.194-.142-.131-.41-.979-.594-1.883-.703-3.448-3.056-7.225-5.84-9.375-1.333-1.03-1.45-1.206-1.45-2.205-.002-2.6 1.648-6.219 3.84-8.419 2.606-2.617 5.905-3.978 9.642-3.978 7.567 0 13.448 5.821 13.519 13.381.036 3.908-1.219 7.012-3.933 9.727-1.623 1.622-3.127 2.57-5.217 3.29-1.532.527-4.515.848-6.105.656M87.622 70.63c-3.795-1.56-6.907-1.701-10.729-.487l-1.984.63-.142-.707c-.447-2.22-1.056-4.086-1.774-5.433-.975-1.829-3.295-4.456-4.929-5.58-1.355-.932-1.355-.966-.016-3.68 2.427-4.918 8.352-7.902 13.894-6.997 2.043.334 4.673 1.426 6.155 2.556l.906.691-.68 1.927c-.986 2.8-1.134 6.793-.357 9.628.576 2.099 1.521 4.216 2.502 5.607l.536.76-.904.866-.904.865z" style="fill:#890504" transform="translate(-36.2 -28.644)"/><path d="M75.822 135.155c-4.139-.402-9.305-1.453-15.327-3.118l-1.735-.48v-8.94c0-8.492.03-9.032.592-10.808 1.325-4.18 4.482-7.986 8.242-9.934 3.82-1.978 4.099-2.024 13.088-2.148l8.04-.112.183 1.62c.338 2.988 1.73 6.197 3.781 8.715.674.827 1.186 1.533 1.137 1.568-.048.034-.629.263-1.29.507-2.168.802-5.364 2.87-7.06 4.566-4.34 4.34-6.258 9.218-6.28 15.976-.009 2.807-.022 2.87-.61 2.834-.33-.02-1.573-.131-2.761-.246m3.763-36.29c-5.339-.85-9.606-4.7-11.104-10.016-.58-2.057-.468-5.539.244-7.638 1.952-5.75 6.942-9.316 13.033-9.316 4.804 0 9.23 2.552 11.682 6.737.935 1.595 1.763 4.518 1.763 6.221 0 1.265-.081 1.425-1.352 2.67-.744.73-1.876 2.167-2.515 3.195-1.09 1.754-2.273 4.74-2.273 5.74 0 .502-2.179 1.683-3.872 2.098-1.659.407-4.138.544-5.606.31" style="fill:#155920" transform="translate(-36.2 -28.644)"/><path d="M153.672 118.908c0-6.674-1.988-11.676-6.348-15.972-1.754-1.73-4.851-3.731-7-4.527-.662-.244-1.247-.477-1.3-.518-.055-.04.462-.71 1.149-1.487 2.066-2.343 3.872-6.767 3.884-9.519l.004-.896 7.275.129c7.844.138 8.61.251 11.752 1.735a17.23 17.23 0 0 1 8.08 7.937c1.623 3.305 1.727 4.116 1.727 13.506v8.455l-1.268.533c-1.82.766-5.247 1.856-7.35 2.337-2.376.544-7.398 1.2-9.186 1.2h-1.419zm-6.274-33.675a20 20 0 0 1-2.136-.599c-1.041-.368-1.081-.43-1.62-2.487-.698-2.666-1.15-3.7-2.464-5.632-1.08-1.589-3.235-3.77-4.275-4.326-.714-.382-.76-1.374-.17-3.642.64-2.457 1.705-4.347 3.457-6.132 4.312-4.393 10.516-5.379 16.102-2.56 1.778.898 4.238 3.203 5.236 4.907 3.17 5.41 2.39 12.088-1.938 16.564-3.068 3.174-8.032 4.764-12.192 3.907" style="fill:#0e4d16" transform="translate(-36.2 -28.644)"/></svg>